{
	"asset":{
		"generator":"Khronos glTF Blender I/O v4.4.55",
		"version":"2.0"
	},
	"extensionsUsed":[
		"EXT_texture_webp"
	],
	"extensionsRequired":[
		"EXT_texture_webp"
	],
	"scene":0,
	"scenes":[
		{
			"name":"Scene",
			"nodes":[
				0
			]
		}
	],
	"nodes":[
		{
			"mesh":0,
			"name":"retopoBed_Baked_Baked2",
			"translation":[
				0.06686270236968994,
				-0.014625309966504574,
				-0.008322954177856445
			]
		}
	],
	"materials":[
		{
			"emissiveFactor":[
				1,
				1,
				1
			],
			"emissiveTexture":{
				"index":0
			},
			"name":"retopoBed_Baked",
			"pbrMetallicRoughness":{
				"baseColorFactor":[
					0,
					0,
					0,
					1
				]
			}
		}
	],
	"meshes":[
		{
			"name":"Cube.020",
			"primitives":[
				{
					"attributes":{
						"POSITION":0,
						"TEXCOORD_0":1
					},
					"indices":2,
					"material":0
				}
			]
		}
	],
	"textures":[
		{
			"extensions":{
				"EXT_texture_webp":{
					"source":0
				}
			},
			"sampler":0
		}
	],
	"images":[
		{
			"mimeType":"image/webp",
			"name":"retopoBed_Baked",
			"uri":"texture/retopoBed_Baked.webp"
		}
	],
	"accessors":[
		{
			"bufferView":0,
			"componentType":5126,
			"count":27157,
			"max":[
				1.68313729763031,
				2.514625310897827,
				1.7240314483642578
			],
			"min":[
				-1.81686270236969,
				0.01458171010017395,
				-1.1950492858886719
			],
			"type":"VEC3"
		},
		{
			"bufferView":1,
			"componentType":5126,
			"count":27157,
			"type":"VEC2"
		},
		{
			"bufferView":2,
			"componentType":5123,
			"count":99558,
			"type":"SCALAR"
		}
	],
	"bufferViews":[
		{
			"buffer":0,
			"byteLength":325884,
			"byteOffset":0,
			"target":34962
		},
		{
			"buffer":0,
			"byteLength":217256,
			"byteOffset":325884,
			"target":34962
		},
		{
			"buffer":0,
			"byteLength":199116,
			"byteOffset":543140,
			"target":34963
		}
	],
	"samplers":[
		{
			"magFilter":9729,
			"minFilter":9987
		}
	],
	"buffers":[
		{
			"byteLength":742256,
			"uri":"model.bin"
		}
	]
}
